<svg xmlns="http://www.w3.org/2000/svg" width="100" height="112" viewBox="0 0 100 112"><path d="M85,43H81V31a4.037,4.037,0,0,0-4-4H4a4,4,0,0,0,0,8H73V84c0,11.159-8.4,20-19,20H27C16.4,104,8,95.159,8,84V47a4.039,4.039,0,0,0-4-4,4.039,4.039,0,0,0-4,4V84c0,15.62,12.154,28,27,28H54c14.842,0,27-12.38,27-28V80h4c8.485,0,15-8.071,15-17V59C100,50.071,93.485,43,85,43Zm7,20c0,4.464-2.758,9-7,9H81V51h4c4.242,0,7,3.535,7,8Z" fill="#fff"/><path d="M23,24a4,4,0,0,0,4-4V12a4,4,0,0,0-8,0v8A4,4,0,0,0,23,24Z" fill="#fff"/><path d="M39,24a4,4,0,0,0,4-4V4a4,4,0,0,0-8,0V20A4,4,0,0,0,39,24Z" fill="#fff"/><path d="M54,24a4,4,0,0,0,4-4V12a4,4,0,0,0-8,0v8A4,4,0,0,0,54,24Z" fill="#fff"/></svg>